<svg width="600" height="400" viewBox="0 0 600 400" fill="none" xmlns="http://www.w3.org/2000/svg">
<rect x="1.5" y="1.5" width="597" height="397" stroke="#1BAC77" stroke-width="3" stroke-dasharray="35 35"/>
<path d="M106.992 135V113.672H113.013C114.868 113.672 116.509 114.082 117.935 114.902C119.36 115.723 120.459 116.89 121.23 118.403C122.012 119.917 122.407 121.655 122.417 123.618V124.98C122.417 126.992 122.026 128.755 121.245 130.269C120.474 131.782 119.365 132.944 117.92 133.755C116.484 134.565 114.81 134.98 112.896 135H106.992ZM109.805 115.986V132.7H112.764C114.932 132.7 116.616 132.026 117.817 130.679C119.028 129.331 119.634 127.412 119.634 124.922V123.677C119.634 121.255 119.062 119.375 117.92 118.037C116.787 116.689 115.176 116.006 113.086 115.986H109.805ZM133.916 121.582C133.506 121.514 133.062 121.479 132.583 121.479C130.806 121.479 129.6 122.236 128.965 123.75V135H126.255V119.15H128.892L128.936 120.981C129.824 119.565 131.084 118.857 132.715 118.857C133.242 118.857 133.643 118.926 133.916 119.062V121.582ZM145.62 135C145.464 134.688 145.337 134.131 145.239 133.33C143.979 134.639 142.476 135.293 140.728 135.293C139.165 135.293 137.881 134.854 136.875 133.975C135.879 133.086 135.381 131.963 135.381 130.605C135.381 128.955 136.006 127.676 137.256 126.768C138.516 125.85 140.283 125.391 142.559 125.391H145.195V124.146C145.195 123.198 144.912 122.446 144.346 121.89C143.779 121.323 142.944 121.04 141.841 121.04C140.874 121.04 140.063 121.284 139.409 121.772C138.755 122.261 138.428 122.852 138.428 123.545H135.703C135.703 122.754 135.981 121.992 136.538 121.26C137.104 120.518 137.866 119.932 138.823 119.502C139.79 119.072 140.85 118.857 142.002 118.857C143.828 118.857 145.259 119.316 146.294 120.234C147.329 121.143 147.866 122.397 147.905 123.999V131.294C147.905 132.749 148.091 133.906 148.462 134.766V135H145.62ZM141.123 132.935C141.973 132.935 142.778 132.715 143.54 132.275C144.302 131.836 144.854 131.265 145.195 130.562V127.31H143.071C139.751 127.31 138.091 128.281 138.091 130.225C138.091 131.074 138.374 131.738 138.94 132.217C139.507 132.695 140.234 132.935 141.123 132.935ZM151.509 126.943C151.509 124.473 152.08 122.51 153.223 121.055C154.365 119.59 155.879 118.857 157.764 118.857C159.697 118.857 161.206 119.541 162.29 120.908L162.422 119.15H164.897V134.619C164.897 136.67 164.287 138.286 163.066 139.468C161.855 140.649 160.225 141.24 158.174 141.24C157.031 141.24 155.913 140.996 154.819 140.508C153.726 140.02 152.891 139.351 152.314 138.501L153.721 136.875C154.883 138.311 156.304 139.028 157.983 139.028C159.302 139.028 160.327 138.657 161.06 137.915C161.802 137.173 162.173 136.128 162.173 134.78V133.418C161.089 134.668 159.609 135.293 157.734 135.293C155.879 135.293 154.375 134.546 153.223 133.052C152.08 131.558 151.509 129.521 151.509 126.943ZM154.233 127.251C154.233 129.038 154.6 130.444 155.332 131.47C156.064 132.485 157.09 132.993 158.408 132.993C160.117 132.993 161.372 132.217 162.173 130.664V123.428C161.343 121.914 160.098 121.157 158.438 121.157C157.119 121.157 156.089 121.67 155.347 122.695C154.604 123.721 154.233 125.239 154.233 127.251ZM186.226 135C186.069 134.688 185.942 134.131 185.845 133.33C184.585 134.639 183.081 135.293 181.333 135.293C179.771 135.293 178.486 134.854 177.48 133.975C176.484 133.086 175.986 131.963 175.986 130.605C175.986 128.955 176.611 127.676 177.861 126.768C179.121 125.85 180.889 125.391 183.164 125.391H185.801V124.146C185.801 123.198 185.518 122.446 184.951 121.89C184.385 121.323 183.55 121.04 182.446 121.04C181.479 121.04 180.669 121.284 180.015 121.772C179.36 122.261 179.033 122.852 179.033 123.545H176.309C176.309 122.754 176.587 121.992 177.144 121.26C177.71 120.518 178.472 119.932 179.429 119.502C180.396 119.072 181.455 118.857 182.607 118.857C184.434 118.857 185.864 119.316 186.899 120.234C187.935 121.143 188.472 122.397 188.511 123.999V131.294C188.511 132.749 188.696 133.906 189.067 134.766V135H186.226ZM181.729 132.935C182.578 132.935 183.384 132.715 184.146 132.275C184.907 131.836 185.459 131.265 185.801 130.562V127.31H183.677C180.356 127.31 178.696 128.281 178.696 130.225C178.696 131.074 178.979 131.738 179.546 132.217C180.112 132.695 180.84 132.935 181.729 132.935ZM195.322 119.15L195.41 121.143C196.621 119.619 198.203 118.857 200.156 118.857C203.506 118.857 205.195 120.747 205.225 124.526V135H202.515V124.512C202.505 123.369 202.241 122.524 201.724 121.978C201.216 121.431 200.42 121.157 199.336 121.157C198.457 121.157 197.686 121.392 197.021 121.86C196.357 122.329 195.84 122.944 195.469 123.706V135H192.759V119.15H195.322ZM208.652 126.943C208.652 124.512 209.229 122.559 210.381 121.084C211.533 119.6 213.042 118.857 214.907 118.857C216.763 118.857 218.232 119.492 219.316 120.762V112.5H222.026V135H219.536L219.404 133.301C218.32 134.629 216.812 135.293 214.878 135.293C213.042 135.293 211.543 134.541 210.381 133.037C209.229 131.533 208.652 129.57 208.652 127.148V126.943ZM211.362 127.251C211.362 129.048 211.733 130.454 212.476 131.47C213.218 132.485 214.243 132.993 215.552 132.993C217.271 132.993 218.525 132.222 219.316 130.679V123.398C218.506 121.904 217.261 121.157 215.581 121.157C214.253 121.157 213.218 121.67 212.476 122.695C211.733 123.721 211.362 125.239 211.362 127.251ZM233.027 126.943C233.027 124.512 233.604 122.559 234.756 121.084C235.908 119.6 237.417 118.857 239.282 118.857C241.138 118.857 242.607 119.492 243.691 120.762V112.5H246.401V135H243.911L243.779 133.301C242.695 134.629 241.187 135.293 239.253 135.293C237.417 135.293 235.918 134.541 234.756 133.037C233.604 131.533 233.027 129.57 233.027 127.148V126.943ZM235.737 127.251C235.737 129.048 236.108 130.454 236.851 131.47C237.593 132.485 238.618 132.993 239.927 132.993C241.646 132.993 242.9 132.222 243.691 130.679V123.398C242.881 121.904 241.636 121.157 239.956 121.157C238.628 121.157 237.593 121.67 236.851 122.695C236.108 123.721 235.737 125.239 235.737 127.251ZM258.281 121.582C257.871 121.514 257.427 121.479 256.948 121.479C255.171 121.479 253.965 122.236 253.33 123.75V135H250.62V119.15H253.257L253.301 120.981C254.189 119.565 255.449 118.857 257.08 118.857C257.607 118.857 258.008 118.926 258.281 119.062V121.582ZM259.775 126.929C259.775 125.376 260.078 123.979 260.684 122.739C261.299 121.499 262.148 120.542 263.232 119.868C264.326 119.194 265.571 118.857 266.968 118.857C269.126 118.857 270.869 119.604 272.197 121.099C273.535 122.593 274.204 124.58 274.204 127.061V127.251C274.204 128.794 273.906 130.181 273.311 131.411C272.725 132.632 271.88 133.584 270.776 134.268C269.683 134.951 268.423 135.293 266.997 135.293C264.849 135.293 263.105 134.546 261.768 133.052C260.439 131.558 259.775 129.58 259.775 127.119V126.929ZM262.5 127.251C262.5 129.009 262.905 130.42 263.716 131.484C264.536 132.549 265.63 133.081 266.997 133.081C268.374 133.081 269.468 132.544 270.278 131.47C271.089 130.386 271.494 128.872 271.494 126.929C271.494 125.19 271.079 123.784 270.249 122.71C269.429 121.626 268.335 121.084 266.968 121.084C265.63 121.084 264.551 121.616 263.73 122.681C262.91 123.745 262.5 125.269 262.5 127.251ZM290.991 127.251C290.991 129.663 290.439 131.606 289.336 133.081C288.232 134.556 286.738 135.293 284.854 135.293C282.93 135.293 281.416 134.683 280.312 133.462V141.094H277.603V119.15H280.078L280.21 120.908C281.313 119.541 282.847 118.857 284.81 118.857C286.714 118.857 288.218 119.575 289.321 121.011C290.435 122.446 290.991 124.443 290.991 127.002V127.251ZM288.281 126.943C288.281 125.156 287.9 123.745 287.139 122.71C286.377 121.675 285.332 121.157 284.004 121.157C282.363 121.157 281.133 121.885 280.312 123.34V130.913C281.123 132.358 282.363 133.081 284.033 133.081C285.332 133.081 286.362 132.568 287.124 131.543C287.896 130.508 288.281 128.975 288.281 126.943ZM304.6 121.069C305.801 119.595 307.363 118.857 309.287 118.857C312.637 118.857 314.326 120.747 314.355 124.526V135H311.646V124.512C311.636 123.369 311.372 122.524 310.854 121.978C310.347 121.431 309.551 121.157 308.467 121.157C307.588 121.157 306.816 121.392 306.152 121.86C305.488 122.329 304.971 122.944 304.6 123.706V135H301.89V112.5H304.6V121.069ZM324.99 135.293C322.842 135.293 321.094 134.59 319.746 133.184C318.398 131.768 317.725 129.878 317.725 127.515V127.017C317.725 125.444 318.022 124.043 318.618 122.812C319.224 121.572 320.063 120.605 321.138 119.912C322.222 119.209 323.394 118.857 324.653 118.857C326.714 118.857 328.315 119.536 329.458 120.894C330.601 122.251 331.172 124.194 331.172 126.724V127.852H320.435C320.474 129.414 320.928 130.679 321.797 131.646C322.676 132.603 323.789 133.081 325.137 133.081C326.094 133.081 326.904 132.886 327.568 132.495C328.232 132.104 328.813 131.587 329.312 130.942L330.967 132.231C329.639 134.272 327.646 135.293 324.99 135.293ZM324.653 121.084C323.56 121.084 322.642 121.484 321.899 122.285C321.157 123.076 320.698 124.189 320.522 125.625H328.462V125.42C328.384 124.043 328.013 122.979 327.349 122.227C326.685 121.465 325.786 121.084 324.653 121.084ZM341.982 121.582C341.572 121.514 341.128 121.479 340.649 121.479C338.872 121.479 337.666 122.236 337.031 123.75V135H334.321V119.15H336.958L337.002 120.981C337.891 119.565 339.15 118.857 340.781 118.857C341.309 118.857 341.709 118.926 341.982 119.062V121.582ZM350.771 135.293C348.623 135.293 346.875 134.59 345.527 133.184C344.18 131.768 343.506 129.878 343.506 127.515V127.017C343.506 125.444 343.804 124.043 344.399 122.812C345.005 121.572 345.845 120.605 346.919 119.912C348.003 119.209 349.175 118.857 350.435 118.857C352.495 118.857 354.097 119.536 355.239 120.894C356.382 122.251 356.953 124.194 356.953 126.724V127.852H346.216C346.255 129.414 346.709 130.679 347.578 131.646C348.457 132.603 349.57 133.081 350.918 133.081C351.875 133.081 352.686 132.886 353.35 132.495C354.014 132.104 354.595 131.587 355.093 130.942L356.748 132.231C355.42 134.272 353.428 135.293 350.771 135.293ZM350.435 121.084C349.341 121.084 348.423 121.484 347.681 122.285C346.938 123.076 346.479 124.189 346.304 125.625H354.243V125.42C354.165 124.043 353.794 122.979 353.13 122.227C352.466 121.465 351.567 121.084 350.435 121.084ZM366.826 126.929C366.826 125.376 367.129 123.979 367.734 122.739C368.35 121.499 369.199 120.542 370.283 119.868C371.377 119.194 372.622 118.857 374.019 118.857C376.177 118.857 377.92 119.604 379.248 121.099C380.586 122.593 381.255 124.58 381.255 127.061V127.251C381.255 128.794 380.957 130.181 380.361 131.411C379.775 132.632 378.931 133.584 377.827 134.268C376.733 134.951 375.474 135.293 374.048 135.293C371.899 135.293 370.156 134.546 368.818 133.052C367.49 131.558 366.826 129.58 366.826 127.119V126.929ZM369.551 127.251C369.551 129.009 369.956 130.42 370.767 131.484C371.587 132.549 372.681 133.081 374.048 133.081C375.425 133.081 376.519 132.544 377.329 131.47C378.14 130.386 378.545 128.872 378.545 126.929C378.545 125.19 378.13 123.784 377.3 122.71C376.479 121.626 375.386 121.084 374.019 121.084C372.681 121.084 371.602 121.616 370.781 122.681C369.961 123.745 369.551 125.269 369.551 127.251ZM392.314 121.582C391.904 121.514 391.46 121.479 390.981 121.479C389.204 121.479 387.998 122.236 387.363 123.75V135H384.653V119.15H387.29L387.334 120.981C388.223 119.565 389.482 118.857 391.113 118.857C391.641 118.857 392.041 118.926 392.314 119.062V121.582ZM408.618 133.081C409.585 133.081 410.43 132.788 411.152 132.202C411.875 131.616 412.275 130.884 412.354 130.005H414.917C414.868 130.913 414.556 131.777 413.979 132.598C413.403 133.418 412.632 134.072 411.665 134.561C410.708 135.049 409.692 135.293 408.618 135.293C406.46 135.293 404.741 134.575 403.462 133.14C402.192 131.694 401.558 129.722 401.558 127.222V126.768C401.558 125.225 401.841 123.853 402.407 122.651C402.974 121.45 403.784 120.518 404.839 119.854C405.903 119.189 407.158 118.857 408.604 118.857C410.381 118.857 411.855 119.39 413.027 120.454C414.209 121.519 414.839 122.9 414.917 124.6H412.354C412.275 123.574 411.885 122.734 411.182 122.08C410.488 121.416 409.629 121.084 408.604 121.084C407.227 121.084 406.157 121.582 405.396 122.578C404.644 123.564 404.268 124.995 404.268 126.87V127.383C404.268 129.209 404.644 130.615 405.396 131.602C406.147 132.588 407.222 133.081 408.618 133.081ZM420.908 135H418.198V112.5H420.908V135ZM428.203 135H425.493V119.15H428.203V135ZM425.273 114.946C425.273 114.507 425.405 114.136 425.669 113.833C425.942 113.53 426.343 113.379 426.87 113.379C427.397 113.379 427.798 113.53 428.071 113.833C428.345 114.136 428.481 114.507 428.481 114.946C428.481 115.386 428.345 115.752 428.071 116.045C427.798 116.338 427.397 116.484 426.87 116.484C426.343 116.484 425.942 116.338 425.669 116.045C425.405 115.752 425.273 115.386 425.273 114.946ZM438.911 133.081C439.878 133.081 440.723 132.788 441.445 132.202C442.168 131.616 442.568 130.884 442.646 130.005H445.21C445.161 130.913 444.849 131.777 444.272 132.598C443.696 133.418 442.925 134.072 441.958 134.561C441.001 135.049 439.985 135.293 438.911 135.293C436.753 135.293 435.034 134.575 433.755 133.14C432.485 131.694 431.851 129.722 431.851 127.222V126.768C431.851 125.225 432.134 123.853 432.7 122.651C433.267 121.45 434.077 120.518 435.132 119.854C436.196 119.189 437.451 118.857 438.896 118.857C440.674 118.857 442.148 119.39 443.32 120.454C444.502 121.519 445.132 122.9 445.21 124.6H442.646C442.568 123.574 442.178 122.734 441.475 122.08C440.781 121.416 439.922 121.084 438.896 121.084C437.52 121.084 436.45 121.582 435.688 122.578C434.937 123.564 434.561 124.995 434.561 126.87V127.383C434.561 129.209 434.937 130.615 435.688 131.602C436.44 132.588 437.515 133.081 438.911 133.081ZM452.681 127.661L450.981 129.434V135H448.271V112.5H450.981V126.108L452.432 124.365L457.368 119.15H460.664L454.497 125.771L461.382 135H458.203L452.681 127.661ZM474.58 115.312V119.15H477.539V121.245H474.58V131.074C474.58 131.709 474.712 132.188 474.976 132.51C475.239 132.822 475.688 132.979 476.323 132.979C476.636 132.979 477.065 132.92 477.612 132.803V135C476.899 135.195 476.206 135.293 475.532 135.293C474.321 135.293 473.408 134.927 472.793 134.194C472.178 133.462 471.87 132.422 471.87 131.074V121.245H468.984V119.15H471.87V115.312H474.58ZM479.707 126.929C479.707 125.376 480.01 123.979 480.615 122.739C481.23 121.499 482.08 120.542 483.164 119.868C484.258 119.194 485.503 118.857 486.899 118.857C489.058 118.857 490.801 119.604 492.129 121.099C493.467 122.593 494.136 124.58 494.136 127.061V127.251C494.136 128.794 493.838 130.181 493.242 131.411C492.656 132.632 491.812 133.584 490.708 134.268C489.614 134.951 488.354 135.293 486.929 135.293C484.78 135.293 483.037 134.546 481.699 133.052C480.371 131.558 479.707 129.58 479.707 127.119V126.929ZM482.432 127.251C482.432 129.009 482.837 130.42 483.647 131.484C484.468 132.549 485.562 133.081 486.929 133.081C488.306 133.081 489.399 132.544 490.21 131.47C491.021 130.386 491.426 128.872 491.426 126.929C491.426 125.19 491.011 123.784 490.181 122.71C489.36 121.626 488.267 121.084 486.899 121.084C485.562 121.084 484.482 121.616 483.662 122.681C482.842 123.745 482.432 125.269 482.432 127.251ZM138.735 168V146.672H145.708C148.022 146.672 149.761 147.15 150.923 148.107C152.095 149.064 152.681 150.48 152.681 152.355C152.681 153.352 152.397 154.235 151.831 155.007C151.265 155.769 150.493 156.359 149.517 156.779C150.669 157.102 151.577 157.717 152.241 158.625C152.915 159.523 153.252 160.598 153.252 161.848C153.252 163.762 152.632 165.266 151.392 166.359C150.151 167.453 148.398 168 146.133 168H138.735ZM141.548 158.024V165.7H146.191C147.5 165.7 148.53 165.363 149.282 164.689C150.044 164.006 150.425 163.068 150.425 161.877C150.425 159.309 149.028 158.024 146.235 158.024H141.548ZM141.548 155.769H145.796C147.026 155.769 148.008 155.461 148.74 154.846C149.482 154.23 149.854 153.396 149.854 152.341C149.854 151.169 149.512 150.319 148.828 149.792C148.145 149.255 147.104 148.986 145.708 148.986H141.548V155.769ZM164.663 154.582C164.253 154.514 163.809 154.479 163.33 154.479C161.553 154.479 160.347 155.236 159.712 156.75V168H157.002V152.15H159.639L159.683 153.981C160.571 152.565 161.831 151.857 163.462 151.857C163.989 151.857 164.39 151.926 164.663 152.062V154.582ZM166.157 159.929C166.157 158.376 166.46 156.979 167.065 155.739C167.681 154.499 168.53 153.542 169.614 152.868C170.708 152.194 171.953 151.857 173.35 151.857C175.508 151.857 177.251 152.604 178.579 154.099C179.917 155.593 180.586 157.58 180.586 160.061V160.251C180.586 161.794 180.288 163.181 179.692 164.411C179.106 165.632 178.262 166.584 177.158 167.268C176.064 167.951 174.805 168.293 173.379 168.293C171.23 168.293 169.487 167.546 168.149 166.052C166.821 164.558 166.157 162.58 166.157 160.119V159.929ZM168.882 160.251C168.882 162.009 169.287 163.42 170.098 164.484C170.918 165.549 172.012 166.081 173.379 166.081C174.756 166.081 175.85 165.544 176.66 164.47C177.471 163.386 177.876 161.872 177.876 159.929C177.876 158.19 177.461 156.784 176.631 155.71C175.811 154.626 174.717 154.084 173.35 154.084C172.012 154.084 170.933 154.616 170.112 155.681C169.292 156.745 168.882 158.269 168.882 160.251ZM198.018 164.265L201.064 152.15H203.774L199.16 168H196.963L193.11 155.988L189.36 168H187.163L182.563 152.15H185.259L188.379 164.016L192.07 152.15H194.253L198.018 164.265ZM215.771 163.796C215.771 163.063 215.493 162.497 214.937 162.097C214.39 161.687 213.428 161.335 212.051 161.042C210.684 160.749 209.595 160.397 208.784 159.987C207.983 159.577 207.388 159.089 206.997 158.522C206.616 157.956 206.426 157.282 206.426 156.501C206.426 155.202 206.973 154.104 208.066 153.205C209.17 152.307 210.576 151.857 212.285 151.857C214.082 151.857 215.537 152.321 216.65 153.249C217.773 154.177 218.335 155.363 218.335 156.809H215.61C215.61 156.066 215.293 155.427 214.658 154.89C214.033 154.353 213.242 154.084 212.285 154.084C211.299 154.084 210.527 154.299 209.971 154.729C209.414 155.158 209.136 155.72 209.136 156.413C209.136 157.067 209.395 157.561 209.912 157.893C210.43 158.225 211.362 158.542 212.71 158.845C214.067 159.147 215.166 159.509 216.006 159.929C216.846 160.349 217.466 160.856 217.866 161.452C218.276 162.038 218.481 162.756 218.481 163.605C218.481 165.021 217.915 166.159 216.782 167.019C215.649 167.868 214.18 168.293 212.373 168.293C211.104 168.293 209.98 168.068 209.004 167.619C208.027 167.17 207.261 166.545 206.704 165.744C206.157 164.934 205.884 164.06 205.884 163.122H208.594C208.643 164.03 209.004 164.753 209.678 165.29C210.361 165.817 211.26 166.081 212.373 166.081C213.398 166.081 214.219 165.876 214.834 165.466C215.459 165.046 215.771 164.489 215.771 163.796ZM228.589 168.293C226.44 168.293 224.692 167.59 223.345 166.184C221.997 164.768 221.323 162.878 221.323 160.515V160.017C221.323 158.444 221.621 157.043 222.217 155.812C222.822 154.572 223.662 153.605 224.736 152.912C225.82 152.209 226.992 151.857 228.252 151.857C230.312 151.857 231.914 152.536 233.057 153.894C234.199 155.251 234.771 157.194 234.771 159.724V160.852H224.033C224.072 162.414 224.526 163.679 225.396 164.646C226.274 165.603 227.388 166.081 228.735 166.081C229.692 166.081 230.503 165.886 231.167 165.495C231.831 165.104 232.412 164.587 232.91 163.942L234.565 165.231C233.237 167.272 231.245 168.293 228.589 168.293ZM228.252 154.084C227.158 154.084 226.24 154.484 225.498 155.285C224.756 156.076 224.297 157.189 224.121 158.625H232.061V158.42C231.982 157.043 231.611 155.979 230.947 155.227C230.283 154.465 229.385 154.084 228.252 154.084ZM257.549 158.581H248.599V168H245.786V146.672H258.999V148.986H248.599V156.281H257.549V158.581ZM264.888 168H262.178V152.15H264.888V168ZM261.958 147.946C261.958 147.507 262.09 147.136 262.354 146.833C262.627 146.53 263.027 146.379 263.555 146.379C264.082 146.379 264.482 146.53 264.756 146.833C265.029 147.136 265.166 147.507 265.166 147.946C265.166 148.386 265.029 148.752 264.756 149.045C264.482 149.338 264.082 149.484 263.555 149.484C263.027 149.484 262.627 149.338 262.354 149.045C262.09 148.752 261.958 148.386 261.958 147.946ZM272.183 168H269.473V145.5H272.183V168ZM283.11 168.293C280.962 168.293 279.214 167.59 277.866 166.184C276.519 164.768 275.845 162.878 275.845 160.515V160.017C275.845 158.444 276.143 157.043 276.738 155.812C277.344 154.572 278.184 153.605 279.258 152.912C280.342 152.209 281.514 151.857 282.773 151.857C284.834 151.857 286.436 152.536 287.578 153.894C288.721 155.251 289.292 157.194 289.292 159.724V160.852H278.555C278.594 162.414 279.048 163.679 279.917 164.646C280.796 165.603 281.909 166.081 283.257 166.081C284.214 166.081 285.024 165.886 285.688 165.495C286.353 165.104 286.934 164.587 287.432 163.942L289.087 165.231C287.759 167.272 285.767 168.293 283.11 168.293ZM282.773 154.084C281.68 154.084 280.762 154.484 280.02 155.285C279.277 156.076 278.818 157.189 278.643 158.625H286.582V158.42C286.504 157.043 286.133 155.979 285.469 155.227C284.805 154.465 283.906 154.084 282.773 154.084ZM301.67 163.796C301.67 163.063 301.392 162.497 300.835 162.097C300.288 161.687 299.326 161.335 297.949 161.042C296.582 160.749 295.493 160.397 294.683 159.987C293.882 159.577 293.286 159.089 292.896 158.522C292.515 157.956 292.324 157.282 292.324 156.501C292.324 155.202 292.871 154.104 293.965 153.205C295.068 152.307 296.475 151.857 298.184 151.857C299.98 151.857 301.436 152.321 302.549 153.249C303.672 154.177 304.233 155.363 304.233 156.809H301.509C301.509 156.066 301.191 155.427 300.557 154.89C299.932 154.353 299.141 154.084 298.184 154.084C297.197 154.084 296.426 154.299 295.869 154.729C295.312 155.158 295.034 155.72 295.034 156.413C295.034 157.067 295.293 157.561 295.811 157.893C296.328 158.225 297.261 158.542 298.608 158.845C299.966 159.147 301.064 159.509 301.904 159.929C302.744 160.349 303.364 160.856 303.765 161.452C304.175 162.038 304.38 162.756 304.38 163.605C304.38 165.021 303.813 166.159 302.681 167.019C301.548 167.868 300.078 168.293 298.271 168.293C297.002 168.293 295.879 168.068 294.902 167.619C293.926 167.17 293.159 166.545 292.603 165.744C292.056 164.934 291.782 164.06 291.782 163.122H294.492C294.541 164.03 294.902 164.753 295.576 165.29C296.26 165.817 297.158 166.081 298.271 166.081C299.297 166.081 300.117 165.876 300.732 165.466C301.357 165.046 301.67 164.489 301.67 163.796ZM307.969 166.579C307.969 166.11 308.105 165.72 308.379 165.407C308.662 165.095 309.082 164.938 309.639 164.938C310.195 164.938 310.615 165.095 310.898 165.407C311.191 165.72 311.338 166.11 311.338 166.579C311.338 167.028 311.191 167.404 310.898 167.707C310.615 168.01 310.195 168.161 309.639 168.161C309.082 168.161 308.662 168.01 308.379 167.707C308.105 167.404 307.969 167.028 307.969 166.579ZM324.229 157.307L325.312 146.672H336.24V149.177H327.612L326.968 154.992C328.013 154.377 329.199 154.069 330.527 154.069C332.471 154.069 334.014 154.714 335.156 156.003C336.299 157.282 336.87 159.016 336.87 161.203C336.87 163.4 336.274 165.134 335.083 166.403C333.901 167.663 332.246 168.293 330.117 168.293C328.232 168.293 326.694 167.771 325.503 166.726C324.312 165.681 323.633 164.235 323.467 162.39H326.03C326.196 163.61 326.631 164.533 327.334 165.158C328.037 165.773 328.965 166.081 330.117 166.081C331.377 166.081 332.363 165.651 333.076 164.792C333.799 163.933 334.16 162.746 334.16 161.232C334.16 159.807 333.77 158.664 332.988 157.805C332.217 156.936 331.187 156.501 329.897 156.501C328.716 156.501 327.788 156.76 327.114 157.277L326.396 157.863L324.229 157.307ZM351.606 146.672L358.579 164.074L365.552 146.672H369.199V168H366.387V159.694L366.65 150.729L359.648 168H357.495L350.508 150.773L350.786 159.694V168H347.974V146.672H351.606ZM374.165 168V146.672H381.138C383.452 146.672 385.19 147.15 386.353 148.107C387.524 149.064 388.11 150.48 388.11 152.355C388.11 153.352 387.827 154.235 387.261 155.007C386.694 155.769 385.923 156.359 384.946 156.779C386.099 157.102 387.007 157.717 387.671 158.625C388.345 159.523 388.682 160.598 388.682 161.848C388.682 163.762 388.062 165.266 386.821 166.359C385.581 167.453 383.828 168 381.562 168H374.165ZM376.978 158.024V165.7H381.621C382.93 165.7 383.96 165.363 384.712 164.689C385.474 164.006 385.854 163.068 385.854 161.877C385.854 159.309 384.458 158.024 381.665 158.024H376.978ZM376.978 155.769H381.226C382.456 155.769 383.438 155.461 384.17 154.846C384.912 154.23 385.283 153.396 385.283 152.341C385.283 151.169 384.941 150.319 384.258 149.792C383.574 149.255 382.534 148.986 381.138 148.986H376.978V155.769ZM402.817 168H400.107V145.5H402.817V168ZM410.112 168H407.402V152.15H410.112V168ZM407.183 147.946C407.183 147.507 407.314 147.136 407.578 146.833C407.852 146.53 408.252 146.379 408.779 146.379C409.307 146.379 409.707 146.53 409.98 146.833C410.254 147.136 410.391 147.507 410.391 147.946C410.391 148.386 410.254 148.752 409.98 149.045C409.707 149.338 409.307 149.484 408.779 149.484C408.252 149.484 407.852 149.338 407.578 149.045C407.314 148.752 407.183 148.386 407.183 147.946ZM417.012 152.15L417.085 153.908C418.247 152.541 419.814 151.857 421.787 151.857C424.004 151.857 425.513 152.707 426.313 154.406C426.841 153.645 427.524 153.029 428.364 152.561C429.214 152.092 430.215 151.857 431.367 151.857C434.844 151.857 436.611 153.698 436.67 157.38V168H433.96V157.541C433.96 156.408 433.701 155.563 433.184 155.007C432.666 154.44 431.797 154.157 430.576 154.157C429.57 154.157 428.735 154.46 428.071 155.065C427.407 155.661 427.021 156.467 426.914 157.482V168H424.189V157.614C424.189 155.31 423.062 154.157 420.806 154.157C419.028 154.157 417.812 154.914 417.158 156.428V168H414.448V152.15H417.012ZM443.716 168H441.006V152.15H443.716V168ZM440.786 147.946C440.786 147.507 440.918 147.136 441.182 146.833C441.455 146.53 441.855 146.379 442.383 146.379C442.91 146.379 443.311 146.53 443.584 146.833C443.857 147.136 443.994 147.507 443.994 147.946C443.994 148.386 443.857 148.752 443.584 149.045C443.311 149.338 442.91 149.484 442.383 149.484C441.855 149.484 441.455 149.338 441.182 149.045C440.918 148.752 440.786 148.386 440.786 147.946ZM451.743 148.312V152.15H454.702V154.245H451.743V164.074C451.743 164.709 451.875 165.188 452.139 165.51C452.402 165.822 452.852 165.979 453.486 165.979C453.799 165.979 454.229 165.92 454.775 165.803V168C454.062 168.195 453.369 168.293 452.695 168.293C451.484 168.293 450.571 167.927 449.956 167.194C449.341 166.462 449.033 165.422 449.033 164.074V154.245H446.147V152.15H449.033V148.312H451.743ZM457.939 166.579C457.939 166.11 458.076 165.72 458.35 165.407C458.633 165.095 459.053 164.938 459.609 164.938C460.166 164.938 460.586 165.095 460.869 165.407C461.162 165.72 461.309 166.11 461.309 166.579C461.309 167.028 461.162 167.404 460.869 167.707C460.586 168.01 460.166 168.161 459.609 168.161C459.053 168.161 458.633 168.01 458.35 167.707C458.076 167.404 457.939 167.028 457.939 166.579Z" fill="#1BAC77"/>
<path d="M346.944 261.821C346.944 261.417 347.01 261.013 347.01 260.608C347.01 238.716 329.897 221 308.787 221C293.558 221 280.476 230.228 274.331 243.566C271.655 242.185 268.649 241.377 265.478 241.377C255.732 241.377 247.605 248.753 246.053 258.385C234.358 262.494 226 273.912 226 287.351C226 304.258 239.247 318 255.567 318H289.429V291.056H273.505L300 262.865L326.495 291.022H310.571V317.966H347.01C361.942 317.966 374 305.336 374 289.877C374 274.417 361.876 261.855 346.944 261.821Z" fill="#1BAC77"/>
</svg>
