<svg width="29" height="58" viewBox="0 0 29 58" fill="none" xmlns="http://www.w3.org/2000/svg">
<path d="M22.9791 50.8357C22.9574 50.843 20.9528 51.51 19.2129 51.51C18.2523 51.51 17.8644 51.3106 17.7412 51.2236C17.1322 50.7995 16.0012 50.0056 17.9369 46.1487L21.5618 38.9207C23.7114 34.6288 24.0304 30.4783 22.4499 27.2303C21.1594 24.5733 18.6836 22.75 15.4901 22.0975C14.341 21.8618 13.1738 21.7458 12.0174 21.7458C5.31496 21.7458 0.801946 25.6608 0.613451 25.8275C-0.0354083 26.4002 -0.187655 27.35 0.243709 28.0967C0.678698 28.8434 1.57405 29.1842 2.40053 28.9014C2.41865 28.8942 4.42686 28.2236 6.16681 28.2236C7.12016 28.2236 7.5044 28.4229 7.62402 28.5063C8.23663 28.934 9.37123 29.7388 7.43916 33.5884L3.81425 40.8201C1.66105 45.1156 1.34568 49.2662 2.92614 52.5105C4.21661 55.1675 6.6888 56.9908 9.88959 57.6433C11.0278 57.8717 12.195 57.9949 13.3478 57.9949C20.0538 57.9949 24.5705 54.08 24.759 53.9133C25.4078 53.3442 25.5601 52.3908 25.1287 51.6441C24.6937 50.901 23.7911 50.5675 22.9791 50.8357Z" fill="#1BAC77"/>
<path d="M19.9379 18.1246C24.9428 18.1246 29.0002 14.0672 29.0002 9.06227C29.0002 4.05732 24.9428 0 19.9379 0C14.9329 0 10.8756 4.05732 10.8756 9.06227C10.8756 14.0672 14.9329 18.1246 19.9379 18.1246Z" fill="#1BAC77"/>
</svg>
