<svg width="39" height="41" viewBox="0 0 39 41" fill="none" xmlns="http://www.w3.org/2000/svg">
<path d="M19.3942 9.67944C13.92 9.67944 9.38428 14.3159 9.38428 20.091C9.38428 25.8662 13.8418 30.5026 19.3942 30.5026C24.9466 30.5026 29.4042 25.7849 29.4042 20.091C29.4042 14.3972 24.8684 9.67944 19.3942 9.67944ZM19.3942 26.7609C15.8751 26.7609 12.9816 23.7513 12.9816 20.091C12.9816 16.4307 15.8751 13.4211 19.3942 13.4211C22.9134 13.4211 25.8069 16.4307 25.8069 20.091C25.8069 23.7513 22.9134 26.7609 19.3942 26.7609Z" fill="white" fill-opacity="0.9"/>
<path d="M29.7954 11.7947C31.0479 11.7947 32.0633 10.7385 32.0633 9.43578C32.0633 8.13301 31.0479 7.0769 29.7954 7.0769C28.5429 7.0769 27.5275 8.13301 27.5275 9.43578C27.5275 10.7385 28.5429 11.7947 29.7954 11.7947Z" fill="white" fill-opacity="0.9"/>
<path d="M35.6605 3.33496C33.6273 1.13877 30.7338 0 27.4492 0H11.3394C4.53577 0 0 4.71775 0 11.7944V28.4692C0 31.9668 1.09484 34.9764 3.28452 37.1726C5.396 39.2874 8.21131 40.3449 11.4176 40.3449H27.371C30.7338 40.3449 33.5491 39.2061 35.5823 37.1726C37.6938 35.0577 38.7887 32.0481 38.7887 28.5505V11.7944C38.7887 8.37807 37.6938 5.44981 35.6605 3.33496ZM35.3477 28.5505C35.3477 31.0721 34.4875 33.1056 33.0798 34.4884C31.6722 35.8711 29.7171 36.6032 27.371 36.6032H11.4176C9.07154 36.6032 7.11647 35.8711 5.70881 34.4884C4.30116 33.0242 3.59733 30.9907 3.59733 28.4692V11.7944C3.59733 9.35415 4.30116 7.32064 5.70881 5.85651C7.03826 4.47372 9.07154 3.74166 11.4176 3.74166H27.5274C29.8735 3.74166 31.8286 4.47373 33.2362 5.93785C34.5657 7.40198 35.3477 9.43549 35.3477 11.7944V28.5505Z" fill="white" fill-opacity="0.9"/>
</svg>
