<svg width="40" height="40" viewBox="0 0 40 40" fill="none" xmlns="http://www.w3.org/2000/svg">
<path d="M38.7708 0H21.5624C20.8839 0 20.3333 0.550667 20.3333 1.22917C20.3333 1.90767 20.8839 2.45833 21.5624 2.45833H37.5416V36.875H21.5624C20.8839 36.875 20.3333 37.4257 20.3333 38.1042C20.3333 38.7827 20.8839 39.3333 21.5624 39.3333H38.7708C39.4493 39.3333 39.9999 38.7827 39.9999 38.1042V1.22917C39.9999 0.550667 39.4493 0 38.7708 0Z" fill="#2C2C2C"/>
<path d="M20.8164 27.4104C20.3357 27.8959 20.3357 28.6813 20.8164 29.1656C21.297 29.6512 22.075 29.6512 22.5544 29.1656L31.0344 20.5627C31.5076 20.0846 31.5126 19.2844 31.0344 18.8062L22.5532 10.2033C22.0726 9.71776 21.2945 9.71899 20.8151 10.2033C20.3345 10.6876 20.3345 11.4742 20.8151 11.9585L27.2068 18.4424H1.89579C1.21729 18.4424 0.666626 18.998 0.666626 19.6838C0.666626 20.3697 1.21729 20.9253 1.89579 20.9253H27.208L20.8164 27.4104Z" fill="#2C2C2C"/>
</svg>
