<svg width="285" height="75" viewBox="0 0 285 75" fill="none" xmlns="http://www.w3.org/2000/svg">
<path d="M237.185 60.5054V53.8654H243.049V60.5054H237.185Z" fill="#1BAC77"/>
<path d="M250.85 60.5054V9.98367H256.788V60.5054H250.85Z" fill="#1BAC77"/>
<path d="M272.084 37.6263V55.8863H285V60.5054H266.145V9.98367H284.777V14.6028H272.084V33.0072H283.664V37.6263H272.084Z" fill="#1BAC77"/>
<path d="M17.1662 6.95644C15.6634 7.00401 14.3396 7.28947 13.1947 7.8128C12.0736 8.31234 11.1076 9.10923 10.2966 10.2035C8.53153 12.606 7.64898 16.5667 7.64898 22.0855C7.64898 23.6555 7.82788 24.8686 8.18567 25.725C8.28108 26.0342 8.40034 26.3078 8.54345 26.5457C8.63886 26.7122 8.68657 26.8787 8.68657 27.0452C6.06278 27.0452 4.1188 26.5219 2.85461 25.4752C1.49501 24.3334 0.815216 22.4899 0.815216 19.9446C0.815216 17.4231 1.28034 15.0324 2.21059 12.7726C3.1647 10.5127 4.60778 8.52643 6.53984 6.81371C8.61501 4.95826 11.2507 3.5191 14.447 2.49623C17.6671 1.47335 21.4596 0.961914 25.8246 0.961914C26.6595 0.961914 27.4943 1.00949 28.3292 1.10464L30.1897 1.28305C32.408 1.52093 33.851 1.66365 34.5189 1.71123C35.5446 1.80638 36.7014 1.85396 37.9895 1.85396C40.5894 1.85396 42.7838 1.55661 44.5728 0.961914C44.3581 1.5804 44.1315 2.40108 43.893 3.42395C43.3682 5.4697 42.3903 7.08727 40.9591 8.27666C40.1243 8.96651 39.0151 9.45415 37.6317 9.73961C34.674 9.73961 31.2511 9.27575 27.3631 8.34802L24.2862 22.8705H34.984L33.8033 28.2941H23.1055L17.1662 55.769H6.61139L17.1662 6.95644Z" fill="#1F1F1F"/>
<path d="M49.7035 15.2703C48.9163 15.2703 48.165 15.1275 47.4494 14.8421C46.7338 14.5328 46.1137 14.1166 45.5889 13.5932C45.0641 13.0937 44.6467 12.4871 44.3366 11.7735C44.0504 11.0598 43.9073 10.3105 43.9073 9.52552C43.9073 8.74052 44.0504 7.99121 44.3366 7.27757C44.6467 6.56394 45.0641 5.93356 45.5889 5.38644C46.1137 4.83932 46.7338 4.42304 47.4494 4.13758C48.165 3.82834 48.9163 3.67372 49.7035 3.67372C50.4906 3.67372 51.242 3.82834 51.9575 4.13758C52.6731 4.42304 53.3052 4.83932 53.8538 5.38644C54.4024 5.93356 54.8199 6.56394 55.1061 7.27757C55.4162 7.99121 55.5712 8.74052 55.5712 9.52552C55.5712 10.3105 55.4162 11.0598 55.1061 11.7735C54.8199 12.4871 54.4024 13.0937 53.8538 13.5932C53.3052 14.1166 52.6731 14.5328 51.9575 14.8421C51.242 15.1275 50.4906 15.2703 49.7035 15.2703ZM44.7302 56.1972C42.3927 56.1972 40.5441 55.5073 39.1845 54.1276C37.6579 52.6052 36.8946 50.381 36.8946 47.4552C36.8946 46.0755 37.0855 44.4817 37.4671 42.6738L42.4404 19.2309H52.9951L47.7356 44.0654C47.5448 44.6839 47.4494 45.4689 47.4494 46.4204C47.4494 47.4195 47.676 48.1212 48.1292 48.5256C48.6063 48.93 49.3695 49.1322 50.4191 49.1322C51.1346 49.1322 51.8264 48.9776 52.4942 48.6683C53.186 48.3353 53.818 47.8833 54.3905 47.3124C55.5593 46.1468 56.4418 44.6006 57.0381 42.6738H60.1151C58.8032 46.3609 57.1574 49.2987 55.1776 51.4872C53.508 53.2713 51.6236 54.5558 49.5246 55.3408C47.998 55.9117 46.3999 56.1972 44.7302 56.1972Z" fill="#1F1F1F"/>
<path d="M69.0742 56.1972C67.3091 56.1972 65.7467 55.9355 64.3871 55.4122C63.0275 54.865 61.8826 54.1157 60.9524 53.1642C60.0937 52.2841 59.4496 51.3088 59.0203 50.2383C58.5909 49.1441 58.3763 48.0142 58.3763 46.8486C58.3763 45.2548 58.7818 43.8156 59.5928 42.5311C60.3083 41.3893 61.2028 40.5686 62.2762 40.069C64.1844 36.6912 65.8421 33.2657 67.2494 29.7927C68.6567 26.3197 70.0044 22.5255 71.2924 18.4103L82.1334 16.983C82.4197 23.1678 82.6821 27.9135 82.9206 31.22C83.1591 34.6216 83.3619 37.1194 83.5288 38.7131C83.6719 40.5686 83.7435 42.1862 83.7435 43.5658C83.7435 44.8028 83.6481 45.7305 83.4573 46.349C85.6517 45.0645 87.4049 43.8394 88.7168 42.6738H91.7937C90.0525 44.6958 88.2516 46.4323 86.3911 47.8833C84.5545 49.3344 82.6224 50.6427 80.595 51.8083C79.1399 53.3307 77.3152 54.4607 75.1208 55.1981C73.2126 55.8641 71.197 56.1972 69.0742 56.1972ZM66.7485 50.4167C68.5852 50.4167 70.0521 49.9172 71.1493 48.9181C72.4612 47.7287 73.1172 45.9684 73.1172 43.6372C73.1172 42.6619 73.0575 41.4368 72.9383 39.962L72.7594 37.7854C72.5447 35.9062 72.33 33.7296 72.1154 31.2557L71.7218 26.3316C71.0301 28.5439 70.2072 30.7442 69.2531 32.9327C68.299 35.0974 67.1421 37.5 65.7825 40.1404C66.9036 40.7589 67.4641 41.6034 67.4641 42.6738C67.4641 43.6253 67.1779 44.446 66.6054 45.1358C65.9852 45.897 65.1981 46.2777 64.244 46.2777C63.767 46.2777 63.3615 46.2182 63.0275 46.0992C62.7174 45.9565 62.467 45.6949 62.2762 45.3143C62.2762 47.0745 62.622 48.371 63.3138 49.2036C64.0055 50.0123 65.1504 50.4167 66.7485 50.4167Z" fill="#1F1F1F"/>
<path d="M118.821 56.1972C115.792 56.1972 113.55 55.3408 112.095 53.6281C110.83 52.1532 110.198 50.2621 110.198 47.9547C110.198 46.8605 110.33 45.5878 110.592 44.1368C110.878 42.6857 111.296 40.8184 111.844 38.5347C112.393 36.2035 112.798 34.3481 113.061 32.9684C113.347 31.5649 113.49 30.3517 113.49 29.3289C113.49 26.8311 112.608 25.5823 110.842 25.5823C109.602 25.5823 108.457 26.2364 107.408 27.5448C106.525 28.6628 105.762 30.2566 105.118 32.3261L100.145 55.769H89.5898L100.216 6.06439L111.057 4.60145L107.121 23.0132C108.553 21.4194 110.091 20.3014 111.737 19.6591C112.953 19.1834 114.265 18.9455 115.673 18.9455C118.153 18.9455 120.109 19.5878 121.54 20.8723C123.067 22.2758 123.83 24.381 123.83 27.188C123.83 28.8769 123.52 31.0773 122.9 33.7891C122.733 34.5741 122.459 35.7516 122.077 37.3216C121.385 39.962 120.884 42.0672 120.574 43.6372C120.383 44.6363 120.288 45.4451 120.288 46.0636C120.288 47.0389 120.503 47.8001 120.932 48.3472C121.385 48.8705 122.149 49.1322 123.222 49.1322C124.677 49.1322 125.905 48.5375 126.907 47.3481C127.67 46.4442 128.493 44.8861 129.376 42.6738H132.453C130.64 48.0261 128.35 51.7726 125.583 53.9135C123.627 55.436 121.373 56.1972 118.821 56.1972Z" fill="#1F1F1F"/>
<path d="M145.276 15.2703C144.489 15.2703 143.738 15.1275 143.022 14.8421C142.306 14.5328 141.686 14.1166 141.161 13.5932C140.637 13.0937 140.219 12.4871 139.909 11.7735C139.623 11.0598 139.48 10.3105 139.48 9.52552C139.48 8.74052 139.623 7.99121 139.909 7.27757C140.219 6.56394 140.637 5.93356 141.161 5.38644C141.686 4.83932 142.306 4.42304 143.022 4.13758C143.738 3.82834 144.489 3.67372 145.276 3.67372C146.063 3.67372 146.814 3.82834 147.53 4.13758C148.246 4.42304 148.878 4.83932 149.426 5.38644C149.975 5.93356 150.392 6.56394 150.679 7.27757C150.989 7.99121 151.144 8.74052 151.144 9.52552C151.144 10.3105 150.989 11.0598 150.679 11.7735C150.392 12.4871 149.975 13.0937 149.426 13.5932C148.878 14.1166 148.246 14.5328 147.53 14.8421C146.814 15.1275 146.063 15.2703 145.276 15.2703ZM140.303 56.1972C137.965 56.1972 136.117 55.5073 134.757 54.1276C133.23 52.6052 132.467 50.381 132.467 47.4552C132.467 46.0755 132.658 44.4817 133.04 42.6738L138.013 19.2309H148.568L143.308 44.0654C143.117 44.6839 143.022 45.4689 143.022 46.4204C143.022 47.4195 143.249 48.1212 143.702 48.5256C144.179 48.93 144.942 49.1322 145.992 49.1322C146.707 49.1322 147.399 48.9776 148.067 48.6683C148.758 48.3353 149.391 47.8833 149.963 47.3124C151.132 46.1468 152.014 44.6006 152.611 42.6738H155.688C154.376 46.3609 152.73 49.2987 150.75 51.4872C149.08 53.2713 147.196 54.5558 145.097 55.3408C143.571 55.9117 141.972 56.1972 140.303 56.1972Z" fill="#1F1F1F"/>
<path d="M182.751 56.1972C179.722 56.1972 177.479 55.3408 176.024 53.6281C174.76 52.1532 174.128 50.2621 174.128 47.9547C174.128 46.8605 174.259 45.5878 174.522 44.1368C174.808 42.6857 175.225 40.8184 175.774 38.5347C176.323 36.2035 176.728 34.3481 176.99 32.9684C177.277 31.5649 177.42 30.3517 177.42 29.3289C177.42 26.8311 176.537 25.5823 174.772 25.5823C173.532 25.5823 172.387 26.2364 171.337 27.5448C170.455 28.6628 169.692 30.2566 169.048 32.3261L164.074 55.769H153.519L161.283 19.2309H171.838L171.051 23.0132C172.482 21.4194 174.021 20.3014 175.667 19.6591C176.883 19.1834 178.195 18.9455 179.602 18.9455C182.083 18.9455 184.039 19.5878 185.47 20.8723C186.997 22.2758 187.76 24.381 187.76 27.188C187.76 28.8769 187.45 31.0773 186.83 33.7891C186.663 34.5741 186.388 35.7516 186.007 37.3216C185.315 39.962 184.814 42.0672 184.504 43.6372C184.313 44.6363 184.218 45.4451 184.218 46.0636C184.218 47.0389 184.432 47.8001 184.862 48.3472C185.315 48.8705 186.078 49.1322 187.152 49.1322C188.607 49.1322 189.835 48.5375 190.837 47.3481C191.6 46.4442 192.423 44.8861 193.306 42.6738H196.383C194.57 48.0261 192.28 51.7726 189.513 53.9135C187.557 55.436 185.303 56.1972 182.751 56.1972Z" fill="#1F1F1F"/>
<path d="M209.921 74.038C208.776 74.038 207.703 73.8834 206.701 73.5741C205.723 73.2887 204.876 72.8486 204.161 72.2539C203.398 71.6592 202.801 70.9099 202.372 70.006C201.943 69.1258 201.728 68.103 201.728 66.9373C201.728 64.178 203.028 61.8111 205.628 59.8367C207.584 58.3856 210.267 57.1249 213.678 56.0544L214.573 52.2008C212.068 54.865 209.134 56.1972 205.771 56.1972C202.98 56.1972 200.726 55.3289 199.009 53.5924C197.005 51.5466 196.003 48.5018 196.003 44.4579C196.003 42.7452 196.182 40.9373 196.54 39.0343C196.874 37.1312 197.375 35.252 198.043 33.3966C199.569 29.2099 201.656 25.832 204.304 23.263C207.357 20.3371 210.875 18.8741 214.859 18.8741C216.839 18.8741 218.317 19.219 219.295 19.9089C220.297 20.5749 220.798 21.467 220.798 22.585V23.0132L221.585 19.2309H232.14L224.877 53.1285C227.191 52.3673 229.039 51.2255 230.423 49.7031C231.925 48.0617 233.154 45.7186 234.108 42.6738H237.185C235.873 47.0032 233.917 50.3454 231.317 52.7004C229.409 54.4131 227.047 55.6263 224.233 56.3399L223.124 61.6208C222.193 66.2832 220.333 69.661 217.542 71.7544C215.515 73.2768 212.974 74.038 209.921 74.038ZM210.53 49.1322C211.579 49.1322 212.688 48.6445 213.857 47.6692C215.121 46.575 215.968 45.1596 216.397 43.4231L220.118 26.1175C220.118 25.8796 220.059 25.6061 219.939 25.2968C219.844 24.9876 219.701 24.7021 219.51 24.4405C218.938 23.7506 218.138 23.4057 217.113 23.4057C216.135 23.4057 215.181 23.7268 214.251 24.3691C213.344 25.0114 212.485 25.9034 211.674 27.0452C210.243 29.1148 209.063 31.8147 208.132 35.145C207.703 36.6198 207.381 38.0828 207.166 39.5338C206.952 40.9611 206.844 42.2575 206.844 43.4231C206.844 45.8495 207.297 47.4908 208.204 48.3472C208.514 48.6802 208.86 48.8943 209.241 48.9895C209.623 49.0846 210.052 49.1322 210.53 49.1322ZM208.24 68.3289C209.003 68.3289 209.79 67.7937 210.601 66.7233C211.412 65.6766 212.044 64.0471 212.497 61.8349L212.927 59.7297C210.708 60.5622 209.051 61.4067 207.953 62.2631C206.498 63.3573 205.771 64.5824 205.771 65.9383C205.771 66.5805 205.974 67.1158 206.379 67.5439C206.832 68.0673 207.453 68.3289 208.24 68.3289Z" fill="#1F1F1F"/>
</svg>
