<svg width="81" height="58" viewBox="0 0 81 58" fill="none" xmlns="http://www.w3.org/2000/svg">
<path d="M5.78571 11.6H75.2143C78.408 11.6 81 9.0016 81 5.8C81 2.5984 78.408 0 75.2143 0H5.78571C2.592 0 0 2.5984 0 5.8C0 9.0016 2.592 11.6 5.78571 11.6ZM75.2143 23.2H5.78571C2.592 23.2 0 25.7984 0 29C0 32.2016 2.592 34.8 5.78571 34.8H75.2143C78.408 34.8 81 32.2016 81 29C81 25.7984 78.408 23.2 75.2143 23.2ZM75.2143 46.4H5.78571C2.592 46.4 0 48.9984 0 52.2C0 55.4016 2.592 58 5.78571 58H75.2143C78.408 58 81 55.4016 81 52.2C81 48.9984 78.408 46.4 75.2143 46.4Z" fill="#232323"/>
</svg>
