<svg width="53" height="40" viewBox="0 0 53 40" fill="none" xmlns="http://www.w3.org/2000/svg">
<path d="M19.0617 21.3483C13.1761 21.3483 8.38757 16.5598 8.38757 10.6741C8.38757 4.7885 13.1761 0 19.0617 0C24.9474 0 29.7359 4.7885 29.7359 10.6741C29.7359 16.5598 24.9474 21.3483 19.0617 21.3483ZM19.0617 2.16354C14.3655 2.16354 10.5511 5.97793 10.5511 10.6741C10.5511 15.3704 14.3655 19.1847 19.0617 19.1847C23.7579 19.1847 27.5723 15.3704 27.5723 10.6741C27.5723 5.97793 23.7579 2.16354 19.0617 2.16354Z" fill="#2C2C2C"/>
<path d="M37.0468 39.3334C36.452 39.3334 35.9701 38.8515 35.9701 38.2568C35.9701 28.9361 28.3926 21.3586 19.072 21.3586C9.75131 21.3586 2.16354 28.9259 2.16354 38.2465C2.16354 38.8412 1.68161 39.3232 1.0869 39.3232C0.49218 39.3232 0 38.8412 0 38.2465C0 27.7364 8.55162 19.1848 19.0617 19.1848C29.5718 19.1848 38.1234 27.7364 38.1234 38.2465C38.1234 38.8412 37.6415 39.3334 37.0468 39.3334Z" fill="#2C2C2C"/>
<path d="M51.4226 17.9953H34.6372C34.0425 17.9953 33.5605 17.5134 33.5605 16.9187C33.5605 16.324 34.0425 15.842 34.6372 15.842H51.4226C52.0173 15.842 52.4992 16.324 52.4992 16.9187C52.4992 17.5134 52.0173 17.9953 51.4226 17.9953Z" fill="#2C2C2C"/>
<path d="M43.0246 26.3827C42.4299 26.3827 41.948 25.9008 41.948 25.3061V8.52073C41.948 7.92602 42.4299 7.44409 43.0246 7.44409C43.6194 7.44409 44.1013 7.92602 44.1013 8.52073V25.3061C44.1115 25.9008 43.6194 26.3827 43.0246 26.3827Z" fill="#2C2C2C"/>
</svg>
