<svg width="19" height="18" viewBox="0 0 19 18" fill="none" xmlns="http://www.w3.org/2000/svg">
<path fill-rule="evenodd" clip-rule="evenodd" d="M11.6558 13.2423C10.5526 14.0285 9.20262 14.4909 7.74467 14.4909C4.01821 14.4909 0.997314 11.47 0.997314 7.74354C0.997314 4.01708 4.01821 0.996185 7.74467 0.996185C11.4711 0.996185 14.492 4.01708 14.492 7.74354C14.492 9.20149 14.0296 10.5514 13.2435 11.6547L17.6767 16.088C18.1135 16.5247 18.1098 17.2236 17.6766 17.6568L17.6579 17.6754C17.2258 18.1076 16.5223 18.1088 16.0891 17.6756L11.6558 13.2423ZM7.74467 12.9033C10.5943 12.9033 12.9044 10.5932 12.9044 7.74354C12.9044 4.89389 10.5943 2.5838 7.74467 2.5838C4.89502 2.5838 2.58493 4.89389 2.58493 7.74354C2.58493 10.5932 4.89502 12.9033 7.74467 12.9033Z" fill="black"/>
</svg>
