<svg width="47" height="40" viewBox="0 0 47 40" fill="none" xmlns="http://www.w3.org/2000/svg">
<path d="M46.6958 4.79486C45.0081 5.58042 43.1919 6.11031 41.2862 6.34744C43.232 5.12762 44.7239 3.19543 45.4275 0.890468C43.6075 2.02148 41.5928 2.84217 39.4467 3.28521C37.7292 1.36864 35.2812 0.170288 32.5722 0.170288C27.3714 0.170288 23.1547 4.58603 23.1547 10.0332C23.1547 10.8051 23.2376 11.5575 23.3988 12.2806C15.571 11.8688 8.63039 7.94296 3.98498 1.97562C3.17424 3.43159 2.71017 5.12567 2.71017 6.9349C2.71017 10.3562 4.37264 13.3755 6.8999 15.1438C5.3567 15.0921 3.90391 14.6481 2.63375 13.9093C2.63282 13.9503 2.63282 13.9923 2.63282 14.0342C2.63282 18.812 5.87949 22.7974 10.1885 23.7049C9.39826 23.9294 8.56609 24.0504 7.7069 24.0504C7.09932 24.0504 6.50944 23.9889 5.93447 23.8728C7.1338 27.7908 10.6116 30.6433 14.7323 30.7223C11.509 33.3678 7.44877 34.9448 3.03539 34.9448C2.27591 34.9448 1.52575 34.898 0.788635 34.8063C4.95786 37.606 9.908 39.2376 15.2262 39.2376C32.5508 39.2376 42.0233 24.2095 42.0233 11.176C42.0233 10.7485 42.0149 10.3221 41.9972 9.89857C43.8368 8.51091 45.434 6.77291 46.6958 4.79486Z" fill="white" fill-opacity="0.9"/>
</svg>
