<svg width="20" height="28" viewBox="0 0 20 28" fill="none" xmlns="http://www.w3.org/2000/svg">
<path d="M14.7575 9.91751C14.7575 12.6551 12.5273 14.8762 9.77612 14.8762C7.0246 14.8762 4.79475 12.6551 4.79475 9.91751C4.79475 7.1791 7.02499 4.95885 9.77612 4.95885C12.5278 4.95866 14.7575 7.17891 14.7575 9.91751ZM19.9259 9.91751C19.9259 4.44011 15.4656 0 9.96294 0C4.46067 0 0 4.44011 0 9.91751C0 12.3258 0.863192 14.5339 2.2976 16.2514L9.97155 27.273L17.7577 16.0907C18.0373 15.7423 18.2935 15.3751 18.5246 14.9892L18.6033 14.8767H18.5904C19.4383 13.4171 19.9259 11.7248 19.9259 9.91751Z" fill="#2C2C2C"/>
</svg>
